<svg xmlns="http://www.w3.org/2000/svg" xmlns:xlink="http://www.w3.org/1999/xlink" width="1080" zoomAndPan="magnify" viewBox="0 0 810 1439.999935" height="1920" preserveAspectRatio="xMidYMid meet" version="1.0"><defs><clipPath id="ed43a961d6"><path d="M 0 0 L 712 0 L 712 149.035156 L 0 149.035156 Z M 0 0 " clip-rule="nonzero"/></clipPath><clipPath id="ee6e5175ac"><path d="M -168.535156 -93.964844 L 673.394531 -93.964844 C 683.539062 -93.964844 693.265625 -89.933594 700.441406 -82.761719 C 707.613281 -75.585938 711.644531 -65.859375 711.644531 -55.714844 L 711.644531 110.785156 C 711.644531 120.929688 707.613281 130.660156 700.441406 137.832031 C 693.265625 145.003906 683.539062 149.035156 673.394531 149.035156 L -168.535156 149.035156 C -178.679688 149.035156 -188.410156 145.003906 -195.582031 137.832031 C -202.753906 130.660156 -206.785156 120.929688 -206.785156 110.785156 L -206.785156 -55.714844 C -206.785156 -65.859375 -202.753906 -75.585938 -195.582031 -82.761719 C -188.410156 -89.933594 -178.679688 -93.964844 -168.535156 -93.964844 Z M -168.535156 -93.964844 " clip-rule="nonzero"/></clipPath><clipPath id="daabf611e5"><path d="M 0 0 L 711.839844 0 L 711.839844 149.035156 L 0 149.035156 Z M 0 0 " clip-rule="nonzero"/></clipPath><clipPath id="69366409fe"><path d="M -168.535156 -93.964844 L 673.394531 -93.964844 C 683.539062 -93.964844 693.265625 -89.933594 700.441406 -82.761719 C 707.613281 -75.585938 711.644531 -65.859375 711.644531 -55.714844 L 711.644531 110.785156 C 711.644531 120.929688 707.613281 130.660156 700.441406 137.832031 C 693.265625 145.003906 683.539062 149.035156 673.394531 149.035156 L -168.535156 149.035156 C -178.679688 149.035156 -188.410156 145.003906 -195.582031 137.832031 C -202.753906 130.660156 -206.785156 120.929688 -206.785156 110.785156 L -206.785156 -55.714844 C -206.785156 -65.859375 -202.753906 -75.585938 -195.582031 -82.761719 C -188.410156 -89.933594 -178.679688 -93.964844 -168.535156 -93.964844 Z M -168.535156 -93.964844 " clip-rule="nonzero"/></clipPath><clipPath id="5ef764bfde"><rect x="0" width="712" y="0" height="150"/></clipPath><clipPath id="31c807669a"><path d="M 213.214844 248.894531 L 810 248.894531 L 810 491.894531 L 213.214844 491.894531 Z M 213.214844 248.894531 " clip-rule="nonzero"/></clipPath><clipPath id="f227b31773"><path d="M 251.464844 248.894531 L 1093.394531 248.894531 C 1103.539062 248.894531 1113.265625 252.921875 1120.441406 260.097656 C 1127.613281 267.269531 1131.644531 277 1131.644531 287.144531 L 1131.644531 453.644531 C 1131.644531 463.789062 1127.613281 473.515625 1120.441406 480.691406 C 1113.265625 487.863281 1103.539062 491.894531 1093.394531 491.894531 L 251.464844 491.894531 C 241.320312 491.894531 231.589844 487.863281 224.417969 480.691406 C 217.246094 473.515625 213.214844 463.789062 213.214844 453.644531 L 213.214844 287.144531 C 213.214844 277 217.246094 267.269531 224.417969 260.097656 C 231.589844 252.921875 241.320312 248.894531 251.464844 248.894531 Z M 251.464844 248.894531 " clip-rule="nonzero"/></clipPath><clipPath id="781903a06d"><path d="M 0.214844 0.894531 L 597 0.894531 L 597 243.894531 L 0.214844 243.894531 Z M 0.214844 0.894531 " clip-rule="nonzero"/></clipPath><clipPath id="f6a8c18018"><path d="M 38.464844 0.894531 L 880.394531 0.894531 C 890.539062 0.894531 900.265625 4.921875 907.441406 12.097656 C 914.613281 19.269531 918.644531 29 918.644531 39.144531 L 918.644531 205.644531 C 918.644531 215.789062 914.613281 225.515625 907.441406 232.691406 C 900.265625 239.863281 890.539062 243.894531 880.394531 243.894531 L 38.464844 243.894531 C 28.320312 243.894531 18.589844 239.863281 11.417969 232.691406 C 4.246094 225.515625 0.214844 215.789062 0.214844 205.644531 L 0.214844 39.144531 C 0.214844 29 4.246094 19.269531 11.417969 12.097656 C 18.589844 4.921875 28.320312 0.894531 38.464844 0.894531 Z M 38.464844 0.894531 " clip-rule="nonzero"/></clipPath><clipPath id="4517079bd3"><rect x="0" width="597" y="0" height="244"/></clipPath><clipPath id="9a43c2a5e6"><path d="M 0 615.644531 L 763.488281 615.644531 L 763.488281 858.644531 L 0 858.644531 Z M 0 615.644531 " clip-rule="nonzero"/></clipPath><clipPath id="f655171ce9"><path d="M -117.105469 615.644531 L 724.820312 615.644531 C 734.964844 615.644531 744.695312 619.671875 751.867188 626.847656 C 759.042969 634.019531 763.070312 643.75 763.070312 653.894531 L 763.070312 820.394531 C 763.070312 830.539062 759.042969 840.265625 751.867188 847.441406 C 744.695312 854.613281 734.964844 858.644531 724.820312 858.644531 L -117.105469 858.644531 C -127.25 858.644531 -136.980469 854.613281 -144.152344 847.441406 C -151.328125 840.265625 -155.355469 830.539062 -155.355469 820.394531 L -155.355469 653.894531 C -155.355469 643.75 -151.328125 634.019531 -144.152344 626.847656 C -136.980469 619.671875 -127.25 615.644531 -117.105469 615.644531 Z M -117.105469 615.644531 " clip-rule="nonzero"/></clipPath><clipPath id="2b1d29d81d"><path d="M 0 0.644531 L 763.199219 0.644531 L 763.199219 243.644531 L 0 243.644531 Z M 0 0.644531 " clip-rule="nonzero"/></clipPath><clipPath id="7ebe6a98c4"><path d="M -117.105469 0.644531 L 724.820312 0.644531 C 734.964844 0.644531 744.695312 4.671875 751.867188 11.847656 C 759.042969 19.019531 763.070312 28.75 763.070312 38.894531 L 763.070312 205.394531 C 763.070312 215.539062 759.042969 225.265625 751.867188 232.441406 C 744.695312 239.613281 734.964844 243.644531 724.820312 243.644531 L -117.105469 243.644531 C -127.25 243.644531 -136.980469 239.613281 -144.152344 232.441406 C -151.328125 225.265625 -155.355469 215.539062 -155.355469 205.394531 L -155.355469 38.894531 C -155.355469 28.75 -151.328125 19.019531 -144.152344 11.847656 C -136.980469 4.671875 -127.25 0.644531 -117.105469 0.644531 Z M -117.105469 0.644531 " clip-rule="nonzero"/></clipPath><clipPath id="402add7183"><rect x="0" width="764" y="0" height="244"/></clipPath><clipPath id="753e87232e"><path d="M 154.714844 958.394531 L 810 958.394531 L 810 1201.394531 L 154.714844 1201.394531 Z M 154.714844 958.394531 " clip-rule="nonzero"/></clipPath><clipPath id="77b5f426c3"><path d="M 192.964844 958.394531 L 1034.894531 958.394531 C 1045.039062 958.394531 1054.765625 962.421875 1061.941406 969.597656 C 1069.113281 976.769531 1073.144531 986.5 1073.144531 996.644531 L 1073.144531 1163.144531 C 1073.144531 1173.289062 1069.113281 1183.015625 1061.941406 1190.191406 C 1054.765625 1197.363281 1045.039062 1201.394531 1034.894531 1201.394531 L 192.964844 1201.394531 C 182.820312 1201.394531 173.089844 1197.363281 165.917969 1190.191406 C 158.746094 1183.015625 154.714844 1173.289062 154.714844 1163.144531 L 154.714844 996.644531 C 154.714844 986.5 158.746094 976.769531 165.917969 969.597656 C 173.089844 962.421875 182.820312 958.394531 192.964844 958.394531 Z M 192.964844 958.394531 " clip-rule="nonzero"/></clipPath><clipPath id="1bda3074ec"><path d="M 0.714844 0.394531 L 656 0.394531 L 656 243.394531 L 0.714844 243.394531 Z M 0.714844 0.394531 " clip-rule="nonzero"/></clipPath><clipPath id="916cde2972"><path d="M 38.964844 0.394531 L 880.894531 0.394531 C 891.039062 0.394531 900.765625 4.421875 907.941406 11.597656 C 915.113281 18.769531 919.144531 28.5 919.144531 38.644531 L 919.144531 205.144531 C 919.144531 215.289062 915.113281 225.015625 907.941406 232.191406 C 900.765625 239.363281 891.039062 243.394531 880.894531 243.394531 L 38.964844 243.394531 C 28.820312 243.394531 19.089844 239.363281 11.917969 232.191406 C 4.746094 225.015625 0.714844 215.289062 0.714844 205.144531 L 0.714844 38.644531 C 0.714844 28.5 4.746094 18.769531 11.917969 11.597656 C 19.089844 4.421875 28.820312 0.394531 38.964844 0.394531 Z M 38.964844 0.394531 " clip-rule="nonzero"/></clipPath><clipPath id="a79b8776dd"><rect x="0" width="656" y="0" height="244"/></clipPath><clipPath id="b09ff4a19f"><path d="M 0 1325.144531 L 641.773438 1325.144531 L 641.773438 1440 L 0 1440 Z M 0 1325.144531 " clip-rule="nonzero"/></clipPath><clipPath id="d6ee1927b6"><path d="M -238.820312 1325.144531 L 603.105469 1325.144531 C 613.25 1325.144531 622.980469 1329.171875 630.152344 1336.347656 C 637.328125 1343.519531 641.355469 1353.25 641.355469 1363.394531 L 641.355469 1529.894531 C 641.355469 1540.039062 637.328125 1549.765625 630.152344 1556.941406 C 622.980469 1564.113281 613.25 1568.144531 603.105469 1568.144531 L -238.820312 1568.144531 C -248.964844 1568.144531 -258.695312 1564.113281 -265.867188 1556.941406 C -273.042969 1549.765625 -277.070312 1540.039062 -277.070312 1529.894531 L -277.070312 1363.394531 C -277.070312 1353.25 -273.042969 1343.519531 -265.867188 1336.347656 C -258.695312 1329.171875 -248.964844 1325.144531 -238.820312 1325.144531 Z M -238.820312 1325.144531 " clip-rule="nonzero"/></clipPath><clipPath id="82b68375c2"><path d="M 0 0.144531 L 641.519531 0.144531 L 641.519531 115 L 0 115 Z M 0 0.144531 " clip-rule="nonzero"/></clipPath><clipPath id="924018d627"><path d="M -238.820312 0.144531 L 603.105469 0.144531 C 613.25 0.144531 622.980469 4.171875 630.152344 11.347656 C 637.328125 18.519531 641.355469 28.25 641.355469 38.394531 L 641.355469 204.894531 C 641.355469 215.039062 637.328125 224.765625 630.152344 231.941406 C 622.980469 239.113281 613.25 243.144531 603.105469 243.144531 L -238.820312 243.144531 C -248.964844 243.144531 -258.695312 239.113281 -265.867188 231.941406 C -273.042969 224.765625 -277.070312 215.039062 -277.070312 204.894531 L -277.070312 38.394531 C -277.070312 28.25 -273.042969 18.519531 -265.867188 11.347656 C -258.695312 4.171875 -248.964844 0.144531 -238.820312 0.144531 Z M -238.820312 0.144531 " clip-rule="nonzero"/></clipPath><clipPath id="a24d62acf5"><rect x="0" width="642" y="0" height="115"/></clipPath></defs><rect x="-81" width="972" fill="#ffffff" y="-143.999994" height="1727.999922" fill-opacity="1"/><rect x="-81" width="972" fill="#0d0d0d" y="-143.999994" height="1727.999922" fill-opacity="1"/><g clip-path="url(#ed43a961d6)"><g clip-path="url(#ee6e5175ac)"><g transform="matrix(1, 0, 0, 1, 0, -0.000000000000101068)"><g clip-path="url(#5ef764bfde)"><g clip-path="url(#daabf611e5)"><g clip-path="url(#69366409fe)"><path fill="#00ff85" d="M -206.785156 -93.964844 L 712.058594 -93.964844 L 712.058594 149.035156 L -206.785156 149.035156 Z M -206.785156 -93.964844 " fill-opacity="1" fill-rule="nonzero"/></g></g></g></g></g></g><g clip-path="url(#31c807669a)"><g clip-path="url(#f227b31773)"><g transform="matrix(1, 0, 0, 1, 213, 248)"><g clip-path="url(#4517079bd3)"><g clip-path="url(#781903a06d)"><g clip-path="url(#f6a8c18018)"><path fill="#00ff85" d="M 0.214844 0.894531 L 919.058594 0.894531 L 919.058594 243.894531 L 0.214844 243.894531 Z M 0.214844 0.894531 " fill-opacity="1" fill-rule="nonzero"/></g></g></g></g></g></g><g clip-path="url(#9a43c2a5e6)"><g clip-path="url(#f655171ce9)"><g transform="matrix(1, 0, 0, 1, 0, 615)"><g clip-path="url(#402add7183)"><g clip-path="url(#2b1d29d81d)"><g clip-path="url(#7ebe6a98c4)"><path fill="#00ff85" d="M -155.355469 0.644531 L 763.488281 0.644531 L 763.488281 243.644531 L -155.355469 243.644531 Z M -155.355469 0.644531 " fill-opacity="1" fill-rule="nonzero"/></g></g></g></g></g></g><g clip-path="url(#753e87232e)"><g clip-path="url(#77b5f426c3)"><g transform="matrix(1, 0, 0, 1, 154, 958)"><g clip-path="url(#a79b8776dd)"><g clip-path="url(#1bda3074ec)"><g clip-path="url(#916cde2972)"><path fill="#00ff85" d="M 0.714844 0.394531 L 919.558594 0.394531 L 919.558594 243.394531 L 0.714844 243.394531 Z M 0.714844 0.394531 " fill-opacity="1" fill-rule="nonzero"/></g></g></g></g></g></g><g clip-path="url(#b09ff4a19f)"><g clip-path="url(#d6ee1927b6)"><g transform="matrix(1, 0, 0, 1, 0, 1325)"><g clip-path="url(#a24d62acf5)"><g clip-path="url(#82b68375c2)"><g clip-path="url(#924018d627)"><path fill="#00ff85" d="M -277.070312 0.144531 L 641.773438 0.144531 L 641.773438 243.144531 L -277.070312 243.144531 Z M -277.070312 0.144531 " fill-opacity="1" fill-rule="nonzero"/></g></g></g></g></g></g></svg>